<svg id="visual" viewBox="0 0 900 600" width="900" height="600" xmlns="http://www.w3.org/2000/svg" xmlns:xlink="http://www.w3.org/1999/xlink" version="1.1"><g stroke-width="1" stroke-linejoin="bevel"><path d="M392 301L324 382L385 409Z" fill="#246688" stroke="#246688"></path><path d="M392 301L272 277L324 382Z" fill="#15384f" stroke="#15384f"></path><path d="M517 398L515 307L392 301Z" fill="#19435d" stroke="#19435d"></path><path d="M392 301L264 213L272 277Z" fill="#277297" stroke="#277297"></path><path d="M223 337L268 462L324 382Z" fill="#1d4e6b" stroke="#1d4e6b"></path><path d="M324 382L268 462L385 409Z" fill="#297ea6" stroke="#297ea6"></path><path d="M504 531L517 398L385 409Z" fill="#205a7a" stroke="#205a7a"></path><path d="M385 409L517 398L392 301Z" fill="#0c2435" stroke="#0c2435"></path><path d="M272 277L223 337L324 382Z" fill="#205a7a" stroke="#205a7a"></path><path d="M433 171L264 213L392 301Z" fill="#297ea6" stroke="#297ea6"></path><path d="M272 277L175 234L223 337Z" fill="#1d4e6b" stroke="#1d4e6b"></path><path d="M268 462L401 539L385 409Z" fill="#0c2435" stroke="#0c2435"></path><path d="M136 368L187 381L223 337Z" fill="#081a28" stroke="#081a28"></path><path d="M223 337L187 381L268 462Z" fill="#205a7a" stroke="#205a7a"></path><path d="M473 187L433 171L392 301Z" fill="#246688" stroke="#246688"></path><path d="M515 307L473 187L392 301Z" fill="#0c2435" stroke="#0c2435"></path><path d="M574 474L571 407L517 398Z" fill="#205a7a" stroke="#205a7a"></path><path d="M517 398L571 407L515 307Z" fill="#15384f" stroke="#15384f"></path><path d="M515 307L573 195L473 187Z" fill="#0c2435" stroke="#0c2435"></path><path d="M571 407L581 292L515 307Z" fill="#297ea6" stroke="#297ea6"></path><path d="M401 539L504 531L385 409Z" fill="#246688" stroke="#246688"></path><path d="M237 91L175 234L264 213Z" fill="#15384f" stroke="#15384f"></path><path d="M264 213L175 234L272 277Z" fill="#112e42" stroke="#112e42"></path><path d="M504 531L574 474L517 398Z" fill="#0c2435" stroke="#0c2435"></path><path d="M571 407L702 286L581 292Z" fill="#15384f" stroke="#15384f"></path><path d="M92 305L136 368L223 337Z" fill="#0c2435" stroke="#0c2435"></path><path d="M187 381L197 527L268 462Z" fill="#112e42" stroke="#112e42"></path><path d="M109 520L197 527L187 381Z" fill="#081a28" stroke="#081a28"></path><path d="M268 462L292 600L401 539Z" fill="#297ea6" stroke="#297ea6"></path><path d="M428 84L316 111L433 171Z" fill="#00101c" stroke="#00101c"></path><path d="M433 171L316 111L264 213Z" fill="#277297" stroke="#277297"></path><path d="M292 600L439 600L401 539Z" fill="#0c2435" stroke="#0c2435"></path><path d="M401 539L439 600L504 531Z" fill="#297ea6" stroke="#297ea6"></path><path d="M504 531L596 600L574 474Z" fill="#297ea6" stroke="#297ea6"></path><path d="M581 292L573 195L515 307Z" fill="#15384f" stroke="#15384f"></path><path d="M473 187L428 84L433 171Z" fill="#246688" stroke="#246688"></path><path d="M197 527L292 600L268 462Z" fill="#0c2435" stroke="#0c2435"></path><path d="M528 86L428 84L473 187Z" fill="#081a28" stroke="#081a28"></path><path d="M113 170L92 305L175 234Z" fill="#00101c" stroke="#00101c"></path><path d="M175 234L92 305L223 337Z" fill="#0c2435" stroke="#0c2435"></path><path d="M136 368L109 520L187 381Z" fill="#0c2435" stroke="#0c2435"></path><path d="M109 520L224 600L197 527Z" fill="#1d4e6b" stroke="#1d4e6b"></path><path d="M197 527L224 600L292 600Z" fill="#081a28" stroke="#081a28"></path><path d="M439 600L528 600L504 531Z" fill="#1d4e6b" stroke="#1d4e6b"></path><path d="M300 0L237 91L316 111Z" fill="#246688" stroke="#246688"></path><path d="M316 111L237 91L264 213Z" fill="#081a28" stroke="#081a28"></path><path d="M573 195L528 86L473 187Z" fill="#19435d" stroke="#19435d"></path><path d="M0 368L109 520L136 368Z" fill="#277297" stroke="#277297"></path><path d="M237 91L113 170L175 234Z" fill="#205a7a" stroke="#205a7a"></path><path d="M668 600L676 462L574 474Z" fill="#15384f" stroke="#15384f"></path><path d="M574 474L676 462L571 407Z" fill="#246688" stroke="#246688"></path><path d="M581 292L702 286L573 195Z" fill="#15384f" stroke="#15384f"></path><path d="M716 129L567 85L573 195Z" fill="#112e42" stroke="#112e42"></path><path d="M573 195L567 85L528 86Z" fill="#277297" stroke="#277297"></path><path d="M522 0L409 0L428 84Z" fill="#00101c" stroke="#00101c"></path><path d="M528 600L596 600L504 531Z" fill="#00101c" stroke="#00101c"></path><path d="M732 398L702 286L571 407Z" fill="#081a28" stroke="#081a28"></path><path d="M522 0L428 84L528 86Z" fill="#00101c" stroke="#00101c"></path><path d="M428 84L409 0L316 111Z" fill="#277297" stroke="#277297"></path><path d="M409 0L300 0L316 111Z" fill="#19435d" stroke="#19435d"></path><path d="M237 91L75 125L113 170Z" fill="#15384f" stroke="#15384f"></path><path d="M676 462L732 398L571 407Z" fill="#1d4e6b" stroke="#1d4e6b"></path><path d="M807 474L732 398L676 462Z" fill="#19435d" stroke="#19435d"></path><path d="M702 286L727 237L573 195Z" fill="#297ea6" stroke="#297ea6"></path><path d="M816 328L727 237L702 286Z" fill="#246688" stroke="#246688"></path><path d="M92 305L0 368L136 368Z" fill="#081a28" stroke="#081a28"></path><path d="M0 303L0 368L92 305Z" fill="#15384f" stroke="#15384f"></path><path d="M186 0L75 125L237 91Z" fill="#081a28" stroke="#081a28"></path><path d="M0 195L0 303L92 305Z" fill="#246688" stroke="#246688"></path><path d="M0 195L92 305L113 170Z" fill="#081a28" stroke="#081a28"></path><path d="M567 85L522 0L528 86Z" fill="#246688" stroke="#246688"></path><path d="M625 0L522 0L567 85Z" fill="#205a7a" stroke="#205a7a"></path><path d="M596 600L668 600L574 474Z" fill="#19435d" stroke="#19435d"></path><path d="M0 520L63 600L109 520Z" fill="#15384f" stroke="#15384f"></path><path d="M109 520L63 600L224 600Z" fill="#297ea6" stroke="#297ea6"></path><path d="M300 0L186 0L237 91Z" fill="#246688" stroke="#246688"></path><path d="M0 105L0 195L75 125Z" fill="#297ea6" stroke="#297ea6"></path><path d="M75 125L0 195L113 170Z" fill="#081a28" stroke="#081a28"></path><path d="M0 368L0 520L109 520Z" fill="#246688" stroke="#246688"></path><path d="M727 237L716 129L573 195Z" fill="#1d4e6b" stroke="#1d4e6b"></path><path d="M716 129L625 0L567 85Z" fill="#297ea6" stroke="#297ea6"></path><path d="M827 379L816 328L732 398Z" fill="#246688" stroke="#246688"></path><path d="M732 398L816 328L702 286Z" fill="#297ea6" stroke="#297ea6"></path><path d="M727 237L798 183L716 129Z" fill="#112e42" stroke="#112e42"></path><path d="M0 520L0 600L63 600Z" fill="#15384f" stroke="#15384f"></path><path d="M72 0L0 105L75 125Z" fill="#112e42" stroke="#112e42"></path><path d="M801 600L807 474L676 462Z" fill="#1d4e6b" stroke="#1d4e6b"></path><path d="M807 474L827 379L732 398Z" fill="#277297" stroke="#277297"></path><path d="M816 328L798 183L727 237Z" fill="#0c2435" stroke="#0c2435"></path><path d="M716 129L707 0L625 0Z" fill="#112e42" stroke="#112e42"></path><path d="M900 272L798 183L816 328Z" fill="#205a7a" stroke="#205a7a"></path><path d="M186 0L72 0L75 125Z" fill="#297ea6" stroke="#297ea6"></path><path d="M798 183L784 132L716 129Z" fill="#081a28" stroke="#081a28"></path><path d="M792 0L707 0L716 129Z" fill="#081a28" stroke="#081a28"></path><path d="M668 600L801 600L676 462Z" fill="#00101c" stroke="#00101c"></path><path d="M807 474L900 425L827 379Z" fill="#1d4e6b" stroke="#1d4e6b"></path><path d="M72 0L0 0L0 105Z" fill="#19435d" stroke="#19435d"></path><path d="M900 502L900 425L807 474Z" fill="#00101c" stroke="#00101c"></path><path d="M827 379L900 272L816 328Z" fill="#112e42" stroke="#112e42"></path><path d="M798 183L900 180L784 132Z" fill="#112e42" stroke="#112e42"></path><path d="M900 425L900 272L827 379Z" fill="#15384f" stroke="#15384f"></path><path d="M784 132L792 0L716 129Z" fill="#15384f" stroke="#15384f"></path><path d="M801 600L900 502L807 474Z" fill="#277297" stroke="#277297"></path><path d="M900 69L792 0L784 132Z" fill="#19435d" stroke="#19435d"></path><path d="M900 272L900 180L798 183Z" fill="#297ea6" stroke="#297ea6"></path><path d="M801 600L900 600L900 502Z" fill="#15384f" stroke="#15384f"></path><path d="M900 180L900 69L784 132Z" fill="#112e42" stroke="#112e42"></path><path d="M900 69L900 0L792 0Z" fill="#00101c" stroke="#00101c"></path></g></svg>